<svg width="247" height="70" viewBox="0 0 247 70" fill="none" xmlns="http://www.w3.org/2000/svg">
<path d="M22.65 5.304C22.778 5.21866 23.29 5.176 24.186 5.176C25.1247 5.176 25.658 5.21866 25.786 5.304C25.914 5.34666 26.042 5.432 26.17 5.56C26.2553 5.688 28.538 12.5787 33.018 26.232C37.5407 39.9707 39.8233 46.8613 39.866 46.904C40.0367 47.16 40.6553 47.3093 41.722 47.352C42.1487 47.3947 43.066 47.416 44.474 47.416H46.138V49.208V51H45.562C45.6047 51 44.09 50.9573 41.018 50.872C38.4153 50.8293 35.642 50.8293 32.698 50.872L27.578 51H26.874V49.208V47.416H27.898C30.202 47.416 31.61 47.288 32.122 47.032C32.2073 46.9467 32.25 46.8613 32.25 46.776C32.25 46.8613 31.8447 45.6027 31.034 43C30.3087 40.824 29.8607 39.4373 29.69 38.84L29.562 38.456H22.33H15.162L14.074 41.72L12.986 45.176C12.9433 45.5173 13.0927 45.8587 13.434 46.2C14.1593 46.8827 15.3753 47.288 17.082 47.416H17.786V49.208V51H17.21L13.05 50.872C10.5753 50.8293 8.33533 50.8293 6.33 50.872C3.98333 50.9573 2.78867 51 2.746 51H2.298V49.208V47.416H2.938C4.30333 47.416 5.54067 47.2667 6.65 46.968C7.97267 46.5413 8.78333 45.9867 9.082 45.304C9.12467 45.2187 11.3433 38.5627 15.738 25.336C20.0047 12.3653 22.1807 5.77333 22.266 5.56C22.394 5.432 22.522 5.34666 22.65 5.304ZM25.338 25.72L22.394 16.632C22.394 16.6747 20.3887 22.712 16.378 34.744C16.378 34.8293 18.362 34.872 22.33 34.872C26.3407 34.872 28.346 34.8507 28.346 34.808L25.338 25.72ZM62.01 22.392C62.8207 22.264 64.0153 22.3067 65.594 22.52C67.898 22.904 69.818 23.864 71.354 25.4C72.9753 27.0213 74.042 29.24 74.554 32.056C74.7247 33.2507 74.81 34.3387 74.81 35.32C74.81 35.6187 74.7247 35.8533 74.554 36.024L74.362 36.216H65.658H56.954V37.304C56.954 40.5467 57.402 42.936 58.298 44.472C59.2793 46.1787 60.7727 47.352 62.778 47.992C63.802 48.2907 64.8047 48.44 65.786 48.44C66.4687 48.44 66.9593 48.3973 67.258 48.312C69.306 47.7147 70.714 46.136 71.482 43.576C71.5673 43.2347 71.6953 42.9787 71.866 42.808L72.058 42.616H73.21H74.362L74.554 42.808C74.81 43.0213 74.8313 43.4693 74.618 44.152C74.234 45.2613 73.722 46.2427 73.082 47.096C72.442 48.0773 71.5887 48.9307 70.522 49.656C68.858 50.8933 66.8953 51.576 64.634 51.704C60.794 51.832 57.4447 50.5093 54.586 47.736C53.434 46.6267 52.4313 45.2613 51.578 43.64C50.5113 41.4213 49.9993 39.032 50.042 36.472C50.0847 34.2533 50.618 32.0773 51.642 29.944C53.562 26.0613 56.5273 23.6293 60.538 22.648C61.0073 22.52 61.498 22.4347 62.01 22.392ZM64.57 25.528C64.0153 25.3573 63.29 25.3147 62.394 25.4C60.218 25.8693 58.682 27.2133 57.786 29.432C57.3167 30.7547 57.082 31.9493 57.082 33.016V33.272H62.97H68.858V32.76C68.73 31.224 68.3673 29.7947 67.77 28.472C67.002 26.9787 65.9353 25.9973 64.57 25.528ZM82.8315 23.096C86.4155 22.84 88.1222 22.712 87.9515 22.712H88.1435V24.248V25.784L88.3995 25.464C88.8262 24.824 89.3595 24.2907 89.9995 23.864C90.4688 23.5227 91.1728 23.2027 92.1115 22.904C92.9222 22.6907 93.7968 22.648 94.7355 22.776C97.0395 23.032 98.6182 23.9493 99.4715 25.528C100.282 27.064 100.197 28.472 99.2155 29.752C98.9595 30.0933 98.6182 30.3707 98.1915 30.584C97.6795 30.84 97.1035 30.968 96.4635 30.968C95.7808 30.968 95.1835 30.84 94.6715 30.584C93.3915 29.944 92.7942 28.856 92.8795 27.32C92.8795 26.936 92.9435 26.5733 93.0715 26.232C93.1995 25.9333 93.2635 25.7627 93.2635 25.72L92.8155 25.848C90.3408 26.36 88.9115 29.1333 88.5275 34.168V46.968C88.6555 47.224 89.8928 47.3733 92.2395 47.416H94.6715V49.208V51H94.0955C94.1382 51 92.6235 50.9573 89.5515 50.872C86.9062 50.8293 84.4528 50.8293 82.1915 50.872C79.5888 50.9573 78.2662 51 78.2235 51H77.6475V49.208V47.416H78.9915C81.2102 47.416 82.4048 47.2667 82.5755 46.968V29.176C82.4048 28.152 81.8715 27.512 80.9755 27.256C80.5062 27.128 79.7808 27.0427 78.7995 27H77.6475V25.208C77.6475 24.0133 77.6902 23.416 77.7755 23.416L82.8315 23.096ZM116.15 22.456C119.99 21.9867 123.467 23.0533 126.582 25.656C126.881 25.912 127.158 26.168 127.414 26.424C128.054 27.064 128.438 27.4907 128.566 27.704C131.339 31.2453 132.385 35.2133 131.702 39.608C131.659 39.8213 131.617 40.0347 131.574 40.248C130.806 44.216 128.694 47.288 125.238 49.464C123.958 50.2747 122.571 50.872 121.078 51.256C120.097 51.512 118.987 51.64 117.75 51.64C116.47 51.64 115.339 51.512 114.358 51.256C110.347 50.232 107.339 47.928 105.334 44.344C104.139 42.168 103.542 39.8213 103.542 37.304C103.542 34.1893 104.374 31.3947 106.038 28.92C108.513 25.1227 111.883 22.968 116.15 22.456ZM118.774 25.4C116.385 25.0587 114.379 25.656 112.758 27.192C111.478 28.344 110.753 30.2853 110.582 33.016C110.539 33.1867 110.518 33.3787 110.518 33.592C110.347 35.768 110.369 38.328 110.582 41.272C110.753 42.8507 111.051 44.0453 111.478 44.856C112.374 46.8187 114.017 47.992 116.406 48.376C117.217 48.5467 118.049 48.568 118.902 48.44C121.291 48.056 122.977 46.8613 123.958 44.856C124.385 44.0453 124.683 42.8507 124.854 41.272C125.067 39.3093 125.089 36.856 124.918 33.912C124.918 33.784 124.918 33.6773 124.918 33.592C124.747 30.648 124.065 28.5787 122.87 27.384C122.827 27.3413 122.763 27.2773 122.678 27.192C121.611 26.168 120.31 25.5707 118.774 25.4Z" fill="#015F89"/>
<ellipse cx="148.5" cy="35" rx="14.5" ry="14" fill="#FFAA20"/>
<path d="M189.748 22.072H191.348C192.414 22.2853 193.204 22.9253 193.716 23.992C194.569 25.6987 194.441 27.0427 193.332 28.024C192.905 28.408 192.372 28.6213 191.732 28.664C190.494 28.7067 189.62 28.1733 189.108 27.064C189.022 26.8507 188.958 26.616 188.916 26.36C188.83 25.8907 188.894 25.592 189.108 25.464L190.004 25.4H190.068L190.964 25.336L190.9 25.208C190.814 25.1227 190.601 25.08 190.26 25.08C189.022 25.08 187.806 25.5067 186.612 26.36L186.356 26.552L186.804 27.128C187.444 27.9813 187.934 28.9413 188.276 30.008C188.702 31.6293 188.702 33.208 188.276 34.744C187.934 35.8107 187.465 36.7493 186.868 37.56C186.228 38.456 185.545 39.16 184.82 39.672C182.004 41.848 178.74 42.5733 175.028 41.848C173.918 41.6347 172.852 41.2933 171.828 40.824L171.124 40.44L170.932 40.888C170.462 41.784 170.398 42.7653 170.74 43.832C171.081 44.8133 171.721 45.4747 172.66 45.816C172.873 45.9013 174.537 45.9653 177.652 46.008C181.236 46.0507 183.561 46.1787 184.628 46.392C187.23 46.776 189.257 47.672 190.708 49.08C192.329 50.5733 193.204 52.6 193.332 55.16C193.374 56.7387 192.884 58.168 191.86 59.448C190.665 60.9413 188.852 62.136 186.42 63.032C182.708 64.3547 178.761 64.5893 174.58 63.736C174.281 63.6933 173.982 63.6293 173.684 63.544C172.489 63.2453 171.337 62.84 170.228 62.328C166.43 60.408 164.681 57.976 164.98 55.032C165.022 54.904 165.044 54.776 165.044 54.648C165.129 54.1787 165.342 53.5813 165.684 52.856C166.324 51.5333 167.326 50.488 168.692 49.72L169.14 49.464L168.692 48.952C167.028 46.8187 166.58 44.3653 167.348 41.592C167.774 40.5253 168.158 39.736 168.5 39.224C168.67 38.968 168.777 38.8187 168.82 38.776C168.82 38.7333 168.734 38.584 168.564 38.328C167.71 37.4747 167.028 36.28 166.516 34.744C165.961 32.6533 166.153 30.6053 167.092 28.6C167.646 27.576 168.244 26.744 168.884 26.104C171.06 23.8427 173.897 22.712 177.396 22.712C179.742 22.712 181.854 23.2667 183.732 24.376C183.988 24.5467 184.137 24.632 184.18 24.632L184.628 24.248C186.078 23.0533 187.785 22.328 189.748 22.072ZM178.356 25.848C176.18 25.5493 174.558 26.0613 173.492 27.384C173.364 27.5547 173.257 27.7253 173.172 27.896C172.83 28.6213 172.66 30.1147 172.66 32.376C172.66 34.68 172.83 36.1733 173.172 36.856C173.684 38.0507 174.772 38.7547 176.436 38.968C178.612 39.2667 180.233 38.7547 181.3 37.432C181.428 37.2613 181.534 37.0693 181.62 36.856C182.004 36.088 182.196 34.5947 182.196 32.376C182.196 30.2 182.004 28.7067 181.62 27.896C181.065 26.744 179.977 26.0613 178.356 25.848ZM181.748 51.384C181.406 51.3413 179.849 51.32 177.076 51.32C174.302 51.32 172.66 51.448 172.148 51.704C171.422 52.088 170.846 52.6853 170.42 53.496C170.121 54.0933 169.972 54.776 169.972 55.544C169.972 56.0987 170.014 56.4827 170.1 56.696C170.654 58.232 172.105 59.448 174.452 60.344C175.86 60.8133 177.438 61.048 179.188 61.048C180.894 61.048 182.473 60.8133 183.924 60.344C186.142 59.5333 187.572 58.3173 188.212 56.696C188.425 56.056 188.446 55.3733 188.276 54.648C187.593 52.728 185.417 51.64 181.748 51.384ZM202.484 8.312C203.977 7.97066 205.278 8.33333 206.388 9.4C207.198 10.296 207.604 11.2773 207.604 12.344C207.604 13.0267 207.454 13.6667 207.156 14.264C206.388 15.7147 205.129 16.4827 203.38 16.568C201.758 16.568 200.542 15.8427 199.732 14.392C199.39 13.752 199.22 13.0693 199.22 12.344C199.22 11.704 199.369 11.0853 199.668 10.488C200.222 9.29333 201.161 8.568 202.484 8.312ZM202.036 23.096C205.62 22.84 207.326 22.712 207.156 22.712H207.348V34.808C207.348 42.872 207.39 46.9467 207.476 47.032C207.604 47.16 207.71 47.224 207.796 47.224C208.052 47.352 208.99 47.416 210.612 47.416H211.828V49.208V51H211.316L207.668 50.872C205.534 50.8293 203.337 50.8293 201.076 50.872C198.473 50.9573 197.15 51 197.108 51H196.532V49.208V47.416H197.876C200.094 47.416 201.289 47.2667 201.46 46.968C201.502 46.9253 201.524 43.9813 201.524 38.136C201.524 31.992 201.438 28.7067 201.268 28.28C201.14 27.896 200.884 27.6187 200.5 27.448C199.902 27.1493 198.9 27 197.492 27H196.788V25.208V23.416H196.916L202.036 23.096ZM214.024 25.208V23.416H214.472L217.864 23.544C219.827 23.5867 221.981 23.5867 224.328 23.544L228.36 23.416H228.872V25.208V27L228.168 27.064C227.827 27.064 227.464 27.128 227.08 27.256C226.781 27.3413 226.632 27.448 226.632 27.576C226.632 27.7467 227.251 28.6853 228.488 30.392L230.344 33.016C230.429 33.016 230.899 32.3973 231.752 31.16C232.861 29.7093 233.395 28.7707 233.352 28.344C233.224 27.6187 232.776 27.192 232.008 27.064L231.624 27V25.208V23.416H232.072L235.72 23.544C239.731 23.6293 242.675 23.5867 244.552 23.416H245V25.208V27H244.424C243.613 27 242.611 27.0853 241.416 27.256C239.539 27.5973 238.195 28.1947 237.384 29.048C237.085 29.3467 236.189 30.5413 234.696 32.632L232.328 35.832L232.648 36.344L240.136 46.904C240.307 47.0747 240.499 47.16 240.712 47.16C241.096 47.3307 242.376 47.416 244.552 47.416H246.088V49.208V51H245.64C243.592 50.8293 240.307 50.7867 235.784 50.872L231.752 51H231.176V49.208V47.416H231.688C232.84 47.3307 233.459 47.1387 233.544 46.84C233.544 46.7973 232.797 45.7093 231.304 43.576C229.853 41.528 229.064 40.504 228.936 40.504L225.48 45.24C225.267 45.624 225.267 46.0507 225.48 46.52C225.736 47.0747 226.227 47.3733 226.952 47.416H227.08V49.208V51H226.568L222.92 50.872C220.829 50.8293 218.909 50.8293 217.16 50.872C215.155 50.9573 214.131 51 214.088 51H213.704V49.208V47.416H214.792C218.163 47.288 220.381 46.5627 221.448 45.24C221.533 45.112 222.493 43.8107 224.328 41.336C226.12 38.904 227.016 37.6667 227.016 37.624L223.496 32.504C221.149 29.176 219.827 27.4267 219.528 27.256C219.443 27.2133 219.229 27.1707 218.888 27.128L216.2 27H214.024V25.208Z" fill="#015F89"/>
</svg>
